<?xml version="1.0" encoding="utf-8" ?>
<svg xmlns="http://www.w3.org/2000/svg" xmlns:xlink="http://www.w3.org/1999/xlink" width="594" height="621">
	<path fill="#434141" d="M15.8245 13.6782L192.489 13.8532L264.404 13.7703C283.807 13.7487 303.142 13.3542 322.478 15.2781Q325.485 15.5766 328.484 15.9389Q331.484 16.3012 334.475 16.7272Q337.466 17.1533 340.448 17.6428Q343.429 18.1323 346.4 18.6851Q349.37 19.2379 352.328 19.8537Q355.286 20.4695 358.23 21.148Q361.174 21.8266 364.104 22.5676Q367.033 23.3086 369.945 24.1117Q372.858 24.9148 375.753 25.7796Q378.648 26.6445 381.524 27.5707Q384.4 28.4969 387.256 29.484Q390.111 30.4711 392.945 31.5187Q395.779 32.5663 398.59 33.6739Q401.401 34.7816 404.188 35.9487Q406.975 37.1158 409.737 38.3419Q412.498 39.5681 415.233 40.8526Q417.968 42.1372 420.674 43.4795Q423.381 44.8219 426.059 46.2216Q428.737 47.6212 431.384 49.0775Q434.031 50.5337 436.647 52.0459Q439.263 53.5581 441.846 55.1256Q444.429 56.6931 446.978 58.3151Q449.527 59.9371 452.041 61.613Q454.555 63.2888 457.033 65.0177Q459.511 66.7467 461.952 68.5279Q464.392 70.3091 466.794 72.1418Q469.196 73.9745 471.559 75.8578Q473.922 77.7412 476.244 79.6743Q478.566 81.6075 480.846 83.5895Q483.127 85.5716 485.364 87.6017Q487.602 89.6319 489.796 91.7091Q491.991 93.7863 494.14 95.9097Q501.893 103.594 509.025 111.858Q516.157 120.122 522.624 128.916C558.735 178.749 576.207 241.109 576.048 302.286Q576.059 305.87 575.982 309.452Q575.904 313.035 575.739 316.615Q575.573 320.195 575.318 323.769Q575.064 327.344 574.721 330.911Q574.378 334.478 573.947 338.036Q573.517 341.594 572.998 345.139Q572.479 348.685 571.873 352.217Q571.267 355.749 570.573 359.265Q569.88 362.781 569.1 366.279Q568.32 369.776 567.453 373.254Q566.587 376.731 565.635 380.186Q564.683 383.641 563.646 387.071Q562.608 390.501 561.487 393.905Q560.365 397.308 559.159 400.683Q557.954 404.058 556.665 407.402Q555.376 410.745 554.006 414.056Q552.635 417.367 551.182 420.644Q549.73 423.92 548.197 427.159Q546.664 430.398 545.051 433.598Q543.439 436.799 541.747 439.958Q540.056 443.117 538.287 446.234Q536.518 449.351 534.673 452.423Q532.828 455.495 530.907 458.52Q528.986 461.545 526.991 464.522Q524.996 467.499 522.928 470.426Q520.86 473.352 518.72 476.227Q516.581 479.102 514.37 481.923Q512.16 484.743 509.881 487.509Q507.602 490.274 505.255 492.982Q502.908 495.69 500.494 498.34Q498.081 500.989 495.603 503.578Q493.125 506.166 490.584 508.693C443.876 555.06 378.439 583.616 313.069 589.097C301.232 590.089 289.324 589.85 277.456 589.839L231.692 589.836L157.619 590.358C135.138 590.388 112.591 589.962 90.1191 590.457L87.3529 590.392L16.0448 590.29C16.3379 583.265 16.1052 576.131 16.0996 569.096L15.9949 529.106C15.2665 520.632 15.8476 511.665 16.0162 503.15L16.1096 244.614Q47.5446 244.791 78.9787 244.511C78.6341 240.117 78.8383 235.6 78.8321 231.185L78.7552 205.967Q78.5854 181.067 78.828 156.169C78.8432 146.23 78.4402 136.148 78.844 126.225C57.9325 126.43 36.9137 125.692 16.0251 126.314C16.3699 104.045 16.0409 81.7237 16.0279 59.4494C16.0191 44.2667 16.5902 28.8322 15.8245 13.6782Z"/>
	<defs>
		<linearGradient id="gradient_0" gradientUnits="userSpaceOnUse" x1="266.97513" y1="487.76996" x2="212.96997" y2="137.78542">
			<stop offset="0" stop-color="#F09325"/>
			<stop offset="1" stop-color="#F8BE3E"/>
		</linearGradient>
	</defs>
	<path fill="url(#gradient_0)" d="M362.996 153.9C367.425 150.472 372.401 148.334 377.278 145.653L404.838 130.557Q422.536 121.053 440.088 111.282Q448.104 106.811 456.203 102.493C459.012 100.966 461.763 99.2413 464.658 97.8882C463.018 111.157 459.658 124.409 457.147 137.55L446.577 194.917C443.851 209.626 440.817 224.402 438.657 239.199C437.104 238.188 435.128 236.535 433.393 235.985C450.276 283.339 448.615 333.209 427.002 378.736Q426.105 380.648 425.161 382.537Q424.217 384.427 423.227 386.293Q422.237 388.158 421.202 389.999Q420.166 391.84 419.086 393.655Q418.006 395.47 416.881 397.257Q415.757 399.045 414.589 400.805Q413.421 402.564 412.21 404.295Q410.999 406.025 409.746 407.725Q408.493 409.426 407.198 411.095Q405.904 412.763 404.569 414.4Q403.234 416.037 401.859 417.64Q400.485 419.244 399.071 420.813Q397.657 422.382 396.206 423.916Q394.754 425.45 393.265 426.948Q391.776 428.446 390.251 429.906Q388.726 431.367 387.165 432.79Q385.604 434.213 384.009 435.598Q382.414 436.982 380.785 438.327Q379.157 439.671 377.495 440.976Q375.834 442.28 374.142 443.543Q372.449 444.806 370.726 446.027Q369.003 447.249 367.25 448.427Q365.497 449.606 363.716 450.741Q361.935 451.876 360.127 452.967Q358.319 454.058 356.484 455.105Q354.65 456.151 352.79 457.152Q350.93 458.153 349.046 459.108Q347.163 460.063 345.256 460.972Q343.349 461.88 341.421 462.742Q339.493 463.603 337.544 464.417Q335.595 465.231 333.627 465.997Q331.659 466.763 329.672 467.48C295.124 479.716 267.978 477.743 232.164 477.814L197.79 477.836C192.875 477.826 187.888 478.022 182.98 477.846C181.604 477.613 180.36 477.629 178.977 477.789L179.154 478.297C172.414 486.716 165.39 494.882 158.662 503.3C154.085 508.097 147.791 514.662 144.354 520.302C137.506 529.145 88.1306 586.97 87.3529 590.392L16.0448 590.29C16.3379 583.265 16.1052 576.131 16.0996 569.096L15.9949 529.106C15.2665 520.632 15.8476 511.665 16.0162 503.15C19.6504 500.305 27.403 489.444 30.4939 485.39L51.2413 458.497L125.107 365.023C128.309 360.896 138.847 349.135 140.453 345.443C144.385 343.089 157.409 324.37 161.419 319.446C183.791 342.129 206.742 364.279 229.347 386.737C232.815 381.578 236.872 376.812 240.592 371.832L275.169 326.386L377.723 190.661C371.905 186.991 364.088 180.225 358.515 175.743C353.663 171.841 348.57 168.221 343.857 164.153C349.689 159.948 356.723 157.376 362.996 153.9Z"/>
	<path fill="#FEFEFD" d="M401.539 209.774Q409.13 216.081 416.96 222.089C420.761 225.004 426.032 228.24 429.39 231.435C430.829 232.805 432.125 234.454 433.393 235.985C450.276 283.339 448.615 333.209 427.002 378.736Q426.105 380.648 425.161 382.537Q424.217 384.427 423.227 386.293Q422.237 388.158 421.202 389.999Q420.166 391.84 419.086 393.655Q418.006 395.47 416.881 397.257Q415.757 399.045 414.589 400.805Q413.421 402.564 412.21 404.295Q410.999 406.025 409.746 407.725Q408.493 409.426 407.198 411.095Q405.904 412.763 404.569 414.4Q403.234 416.037 401.859 417.64Q400.485 419.244 399.071 420.813Q397.657 422.382 396.206 423.916Q394.754 425.45 393.265 426.948Q391.776 428.446 390.251 429.906Q388.726 431.367 387.165 432.79Q385.604 434.213 384.009 435.598Q382.414 436.982 380.785 438.327Q379.157 439.671 377.495 440.976Q375.834 442.28 374.142 443.543Q372.449 444.806 370.726 446.027Q369.003 447.249 367.25 448.427Q365.497 449.606 363.716 450.741Q361.935 451.876 360.127 452.967Q358.319 454.058 356.484 455.105Q354.65 456.151 352.79 457.152Q350.93 458.153 349.046 459.108Q347.163 460.063 345.256 460.972Q343.349 461.88 341.421 462.742Q339.493 463.603 337.544 464.417Q335.595 465.231 333.627 465.997Q331.659 466.763 329.672 467.48C295.124 479.716 267.978 477.743 232.164 477.814L197.79 477.836C192.875 477.826 187.888 478.022 182.98 477.846C181.604 477.613 180.36 477.629 178.977 477.789C166.228 477.952 153.48 477.7 140.729 477.886L140.726 416.991C140.746 407.196 141.286 397.234 140.837 387.464C140.842 387.018 141.048 386.732 141.31 386.367C143.285 383.616 146.281 381.005 148.606 378.493C153.017 373.728 157.193 368.928 161.25 363.853L208.9 410.516C216.48 417.926 223.763 425.703 231.614 432.822C233.355 430.975 234.787 428.656 236.274 426.59Q240.489 420.664 244.862 414.853L280.997 367.188L364.903 257.969C377.219 242.012 388.923 225.483 401.539 209.774Z"/>
	<path fill="#434141" d="M140.837 387.464C141.286 397.234 140.746 407.196 140.726 416.991L140.729 477.886C153.48 477.7 166.228 477.952 178.977 477.789L179.154 478.297C172.414 486.716 165.39 494.882 158.662 503.3C154.085 508.097 147.791 514.662 144.354 520.302C137.506 529.145 88.1306 586.97 87.3529 590.392L16.0448 590.29C16.3379 583.265 16.1052 576.131 16.0996 569.096L15.9949 529.106C18.6807 525.269 22.2651 521.886 25.3432 518.336C33.92 508.445 42.7723 498.798 51.3921 488.942Q95.6822 437.823 140.837 387.464Z"/>
	<path fill="#FEFEFD" d="M97.4274 126.436C102.439 127.045 107.731 126.72 112.786 126.704Q125.424 126.64 138.062 126.717L229.108 127.069C248.331 127.224 267.917 126.308 287.069 127.915C314.455 130.214 339.661 139.716 362.996 153.9C356.723 157.376 349.689 159.948 343.857 164.153C348.57 168.221 353.663 171.841 358.515 175.743C364.088 180.225 371.905 186.991 377.723 190.661L275.169 326.386L240.592 371.832C236.872 376.812 232.815 381.578 229.347 386.737C206.742 364.279 183.791 342.129 161.419 319.446C157.409 324.37 144.385 343.089 140.453 345.443C140.976 329.462 140.746 313.424 140.672 297.437L140.642 245.752C153.337 245.353 166.163 245.687 178.875 245.657C192.589 245.624 206.483 245.234 220.176 245.917Q208.621 234.311 196.796 222.982Q164.63 191.638 132.039 160.736Q120.863 150.17 109.825 139.459C105.596 135.356 100.778 131.305 97.4274 126.436Z"/>
	<path fill="#E59C3C" d="M144.354 520.302C145.164 520.266 145.998 520.115 146.73 520.528C146.539 521.195 146.268 521.689 145.933 522.285C145.715 522.673 145.794 522.526 145.62 523.033C142.878 526.944 139.423 530.39 136.328 534.018C131.919 539.185 127.723 544.587 123.388 549.824L99.9784 578.219C96.6691 582.269 93.5274 586.494 90.1191 590.457L87.3529 590.392C88.1306 586.97 137.506 529.145 144.354 520.302Z"/>
	<path fill="#E59C3C" d="M178.977 477.789C180.36 477.629 181.604 477.613 182.98 477.846C176.002 486.67 168.608 495.124 161.611 503.922C160.89 504.055 160.136 504.262 159.407 504.103C158.947 504.003 158.892 503.67 158.662 503.3C165.39 494.882 172.414 486.716 179.154 478.297L178.977 477.789Z"/>
	<path fill="#D28E3F" d="M158.662 503.3C158.892 503.67 158.947 504.003 159.407 504.103C160.136 504.262 160.89 504.055 161.611 503.922C157.013 509.683 150.81 518.076 145.62 523.033C145.794 522.526 145.715 522.673 145.933 522.285C146.268 521.689 146.539 521.195 146.73 520.528C145.998 520.115 145.164 520.266 144.354 520.302C147.791 514.662 154.085 508.097 158.662 503.3Z"/>
	<path fill="#FEFEFD" d="M82.8456 176.655C84.9195 177.306 93.4356 185.514 95.7185 187.383C99.9319 190.833 104.522 193.804 108.818 197.153C113.645 195.704 118.363 193.362 122.997 191.374C126.398 189.915 129.926 188.656 133.24 187.012C131.764 194.297 130.097 201.555 128.49 208.813C127.683 213.896 127.532 218.834 127.439 223.966C123.436 218.838 118.334 214.495 113.684 209.96C105.735 202.207 97.6931 194.367 90.2451 186.14C87.6295 183.251 84.4631 180.245 82.8456 176.655Z"/>
	<path fill="#FEFEFD" fill-opacity="0.015686275" d="M0.159101 145.204C2.85564 144.542 23.182 144.409 25.8935 144.922L25.7587 145.392L0.159101 145.204Z"/>
	<path fill="#FEFEFD" fill-opacity="0.054901961" d="M524.623 99.9216C527.984 99.1822 532.587 99.6319 536.06 99.6482Q546.888 99.6472 557.712 99.9121C550.976 100.196 544.199 100.118 537.456 100.149C533.288 100.168 528.739 100.518 524.623 99.9216Z"/>
	<path fill="#FEFEFD" fill-opacity="0.019607844" d="M33.9398 145.128C38.6594 144.538 43.6144 144.845 48.3626 144.873C52.9466 144.901 57.615 144.726 62.1818 145.115C58.029 145.567 53.68 145.344 49.5011 145.35C44.3368 145.358 39.0849 145.556 33.9398 145.128Z"/>
	<path fill="#FEFEFD" fill-opacity="0.06666667" d="M508.588 99.9132C512.076 99.595 519.373 99.029 522.59 99.9119C519.823 100.787 511.828 100.083 508.588 99.9132Z"/>
</svg>
